<svg xmlns="http://www.w3.org/2000/svg" xmlns:xlink="http://www.w3.org/1999/xlink" xmlns:fi="http://pattern.flaticon.com/" x="0" y="0" width="1300" height="650" viewBox="0 0 1300 650"><rect x="0px" y="0px" width="100%" height="100%" opacity="1" fill="#ffffff"/><defs><g transform="matrix(-0.06574904918670654 0 0 0.06574904918670654 106.33175659179688 70.66824340820312)" id="L1_13"><path d="m372.21 0h-232.42c-26.95 0-48.79 21.802-48.79 48.79v414.42c0 26.903 21.887 48.79 48.79 48.79h232.42c26.903 0 48.79-21.887 48.79-48.79 0-6.708 0-407.662 0-414.42 0-26.946-21.795-48.79-48.79-48.79zm-251.21 48.79c0-10.388 8.412-18.79 18.79-18.79h232.42c10.311 0 18.79 8.336 18.79 18.79v11.21h-270zm251.21 433.21h-232.42c-10.36 0-18.79-8.43-18.79-18.79v-373.21h270v373.21c0 10.36-8.43 18.79-18.79 18.79z"/><path d="m165.999 220h60c8.284 0 15-6.716 15-15v-60c0-8.284-6.716-15-15-15h-60c-8.284 0-15 6.716-15 15v60c0 8.284 6.716 15 15 15zm15-60h30v30h-30z"/><path d="m240.999 325v-60c0-8.284-6.716-15-15-15h-60c-8.284 0-15 6.716-15 15v60c0 8.284 6.716 15 15 15h60c8.284 0 15-6.716 15-15zm-30-15h-30v-30h30z"/><path d="m345.999 250h-60c-8.284 0-15 6.716-15 15v60c0 8.284 6.716 15 15 15h60c8.284 0 15-6.716 15-15v-60c0-8.284-6.716-15-15-15zm-15 60h-30v-30h30z"/><path d="m345.999 130h-60c-8.284 0-15 6.716-15 15v60c0 8.284 6.716 15 15 15h60c8.284 0 15-6.716 15-15v-60c0-8.284-6.716-15-15-15zm-15 60h-30v-30h30z"/><path d="m277.608 422h-43.217c-8.284 0-15 6.716-15 15s6.716 15 15 15h43.217c8.284 0 15-6.716 15-15s-6.715-15-15-15z"/></g><g transform="matrix(-0.047714915621333585 0.02526083679874405 0.02526083679874405 0.047714915621333585 95.10159855747774 205.61089166612828)" id="L1_15"><path d="m220.784 72.135c-16.978-17.153-46.264-8.811-51.665 14.698l-36.586 142.264-85.923 85.044c-5.883 5.822-5.938 15.325-.109 21.213l7.927 8.009-32.077 31.75c-5.888 5.828-5.937 15.325-.109 21.213l73.191 73.948c5.839 5.899 15.338 5.925 21.213.109l32.077-31.75 7.927 8.008c5.827 5.888 15.324 5.937 21.213.109l11.794-11.674 71.736 72.476c5.838 5.898 15.337 5.926 21.213.109l43.956-43.507c5.888-5.828 5.937-15.325.109-21.213l-71.735-72.477 8.85-8.76 142.634-35.122c23.577-5.163 32.196-34.367 15.228-51.511zm-114.581 366.373-52.088-52.626 21.416-21.198 52.088 52.625zm-27.828-113.597 67.545-66.854 89.045 89.964s-66.76 66.078-67.545 66.854zm216.422 128.473-22.635 22.403-61.183-61.816 22.635-22.403zm105.196-156.105c-.416.105-138.724 34.149-139.14 34.251-1.443-1.458-96.621-97.618-98.178-99.191.101-.391 35.563-138.4 35.68-138.78.181-.593.748-.679 1.106-.321l200.863 202.937c.33.339.265.954-.331 1.104z"/><path d="m446.967 49.566c-30.841-31.493-72.107-49.095-116.197-49.564-8.276-.133-15.069 6.557-15.158 14.839-.088 8.284 6.556 15.071 14.84 15.159 36.078.384 69.846 14.787 95.081 40.556 25.234 25.769 38.928 59.83 38.558 95.908-.085 8.284 6.562 15.068 14.845 15.153.053 0 .105.001.157.001 8.212 0 14.912-6.615 14.996-14.846.453-44.089-16.282-85.713-47.122-117.206z"/><path d="m330.135 60.138c-.053-.001-.104-.001-.155-.001-8.213 0-14.913 6.616-14.996 14.848-.084 8.284 6.563 15.067 14.847 15.151 20.003.203 38.733 8.191 52.739 22.494s21.602 33.196 21.386 53.198c-.09 8.284 6.554 15.071 14.837 15.161.056 0 .11.001.165.001 8.209 0 14.907-6.61 14.996-14.838.302-28.019-10.334-54.481-29.95-74.512-19.617-20.031-45.85-31.218-73.869-31.502z"/></g><g transform="matrix(0.05173605832167975 -0.012173189820190795 0.012173189820190795 0.05173605832167975 148.63923247568113 140.87190566361883)" id="L1_18"><path d="m454.62 122.61h-.087l-12.598-29.567c-11.142-26.147-36.707-43.043-65.13-43.043h-161.61c-28.423 0-53.988 16.896-65.13 43.044l-12.599 29.566h-80.086c-31.639 0-57.38 25.741-57.38 57.38v224.63c0 31.64 25.741 57.38 57.38 57.38h397.24c31.64 0 57.38-25.74 57.38-57.38v-224.63c0-31.639-25.74-57.38-57.38-57.38zm27.38 282.01c0 15.098-12.282 27.38-27.38 27.38h-397.24c-15.097 0-27.38-12.282-27.38-27.38v-224.63c0-15.098 12.283-27.38 27.38-27.38h90c6.012 0 11.443-3.589 13.799-9.12l16.485-38.687c6.421-15.067 21.152-24.803 37.531-24.803h161.609c16.379 0 31.11 9.736 37.531 24.804l16.484 38.687c2.356 5.531 7.788 9.12 13.8 9.12h10c15.098 0 27.38 12.282 27.38 27.38v224.629z"/><path d="m296 129.516c-75.124 0-136.242 61.118-136.242 136.242s61.118 136.242 136.242 136.242 136.242-61.118 136.242-136.242-61.118-136.242-136.242-136.242zm0 242.484c-58.582 0-106.242-47.66-106.242-106.242s47.66-106.242 106.242-106.242 106.242 47.66 106.242 106.242-47.66 106.242-106.242 106.242z"/><path d="m263.307 211.854c-5.857-5.857-15.355-5.857-21.213 0-14.402 14.402-22.334 33.546-22.334 53.906 0 20.361 7.932 39.506 22.334 53.907 5.857 5.857 15.356 5.857 21.213-.001s5.856-15.355-.001-21.214c-8.736-8.734-13.547-20.345-13.547-32.692s4.811-23.957 13.547-32.693c5.859-5.858 5.859-15.356.001-21.213z"/><path d="m94.879 182.61c-8.284 0-15 6.716-15 15v59.789c0 8.284 6.716 15 15 15s15-6.716 15-15v-59.789c0-8.284-6.716-15-15-15z"/><path d="m94.879 303.597c-8.284 0-15 6.716-15 15v59.79c0 8.284 6.716 15 15 15s15-6.716 15-15v-59.79c0-8.284-6.716-15-15-15z"/></g><g transform="matrix(0.05800485470047607 -0.005524271779062194 0.005524271779062194 0.05800485470047607 324.7365436212382 131.56497077211804)" id="L1_19"><path d="m467.783 168.41 30.144-30.144c5.858-5.857 5.858-15.355 0-21.213l-102.98-102.98c-5.857-5.857-15.355-5.857-21.213 0l-30.144 30.144-39.823-39.824c-5.857-5.857-15.355-5.857-21.213 0l-278.16 278.161c-5.858 5.857-5.858 15.355 0 21.213l203.84 203.84c5.858 5.858 15.355 5.858 21.213 0l278.16-278.16c5.858-5.857 5.858-15.355 0-21.213zm-83.443-122.518 81.768 81.768-19.537 19.537-81.768-81.767zm-165.5 429.895-182.627-182.627 214.521-214.521 182.627 182.627zm235.733-235.733-182.626-182.627 21.214-21.214c22.523 22.523 162.861 162.861 182.627 182.627z"/><path d="m341.188 219.155c-1.258-8.188-8.924-13.798-17.104-12.548l-131.491 20.204c-12.01 1.838-17.072 16.687-8.328 25.433l54.556 54.557-102.226 15.707c-8.188 1.259-13.806 8.916-12.548 17.104 1.256 8.173 8.897 13.805 17.104 12.548l131.49-20.204c12.277-1.898 16.889-16.872 8.328-25.433l-54.556-54.557 102.227-15.706c8.187-1.259 13.806-8.916 12.548-17.105z"/></g><g transform="matrix(0.046956308370453115 -0.011048542807317234 0.011048542807317234 0.046956308370453115 246.1507580984908 196.8076120158372)" id="L1_20"><path d="m256 0c-141.491 0-256 114.497-256 256 0 141.491 114.497 256 256 256 141.491 0 256-114.497 256-256 0-141.491-114.497-256-256-256zm189.302 271h36.188c-3.362 51.045-23.739 97.511-55.509 133.767l-15.518-15.517c-5.857-5.859-15.355-5.857-21.213 0-5.858 5.858-5.858 15.355 0 21.213l15.518 15.517c-36.256 31.771-82.723 52.148-133.768 55.51v-26.188c0-8.284-6.716-15-15-15s-15 6.716-15 15v26.188c-51.045-3.362-97.511-23.739-133.767-55.509l15.517-15.518c5.858-5.857 5.858-15.355 0-21.213-5.857-5.857-15.355-5.857-21.213 0l-15.517 15.517c-31.771-36.255-52.148-82.722-55.51-133.767h26.188c8.284 0 15-6.716 15-15s-6.716-15-15-15h-26.188c3.362-51.045 23.739-97.511 55.509-133.767l15.517 15.517c5.858 5.858 15.355 5.858 21.213 0 5.857-5.857 5.857-15.355 0-21.213l-15.517-15.517c36.256-31.771 82.723-52.148 133.768-55.51v26.188c0 8.284 6.716 15 15 15s15-6.716 15-15v-26.188c51.045 3.362 97.511 23.739 133.767 55.509l-15.517 15.518c-5.858 5.858-5.858 15.355 0 21.213 5.856 5.858 15.354 5.859 21.213 0l15.517-15.518c31.771 36.256 52.148 82.723 55.51 133.768h-36.188c-8.284 0-15 6.716-15 15s6.716 15 15 15z"/><path d="m350.651 241h-79.651v-124.302c0-8.284-6.716-15-15-15s-15 6.716-15 15v139.302c0 8.284 6.716 15 15 15h94.651c8.284 0 15-6.716 15-15s-6.715-15-15-15z"/></g><g transform="matrix(0.0414320369561039 0.016572814179618235 -0.016572814179618235 0.0414320369561039 95.63603896921967 327.15075810925515)" id="L1_21"><path d="m374.379 13.586c-28.379-10.689-58.38-15.107-89.166-13.125-7.894.507-14.037 7.058-14.037 14.969v210.396c0 8.284 6.716 15 15 15h210.396c7.911 0 14.461-6.143 14.969-14.037 1.979-30.789-2.437-60.789-13.126-89.168-21.44-56.927-67.037-102.568-124.036-124.035zm-73.204 197.239v-180.818c48.16.424 92.937 19.139 127.308 53.511 34.372 34.372 53.087 79.147 53.511 127.307z"/><path d="m409.922 271.184h-169.104v-169.106c0-7.911-6.143-14.462-14.038-14.969-61.78-3.989-120.848 18.197-164.491 61.84-40.168 40.158-62.289 93.562-62.289 150.378 0 56.812 22.121 110.22 62.288 150.386 40.166 40.166 93.574 62.287 150.387 62.287 91.163 0 168.919-57.483 199.092-137.603 10.687-28.379 15.103-58.381 13.124-89.176-.507-7.894-7.058-14.037-14.969-14.037zm-315.38 167.487 116.273-116.271v159.592c-42.143-.418-83.071-15.074-116.273-43.321zm-11.041-268.507c34.375-34.375 79.144-53.089 127.318-53.508v163.315l-137.49 137.488c-28.038-32.964-43.329-74.368-43.329-118.132 0-48.8 18.999-94.671 53.501-129.163zm157.317 309.684v-178.665h154.527c-.81 92.486-69.492 165.492-154.527 178.665z"/></g><g transform="matrix(0.03981886925367411 -0.031286254385648055 0.031286254385648055 0.03981886925367411 187.26638216411826 274.65512113259047)" id="L1_22"><path d="m497 0h-482c-8.284 0-15 6.716-15 15v332c0 8.284 6.716 15 15 15h189.597v30h-4.269c-41.355 0-75 33.645-75 75 0 8.284 6.716 15 15 15h231.344c8.284 0 15-6.716 15-15 0-41.355-33.645-75-75-75h-4.269v-30h189.597c8.284 0 15-6.716 15-15v-332c0-8.284-6.716-15-15-15zm-15 30v242h-452v-242zm-127.898 422h-196.204c6.19-17.461 22.873-30 42.43-30h111.344c19.557 0 36.239 12.539 42.43 30zm-76.699-60h-42.807v-30h42.807zm-247.403-60v-30h452v30c-4.618 0-432.222 0-452 0z"/><path d="m82.067 229.199h106.865c8.284 0 15-6.716 15-15v-11.667c0-23.966-12.394-45.08-31.099-57.307 5.702-7.71 9.081-17.237 9.081-27.541 0-25.594-20.821-46.415-46.415-46.415s-46.415 20.821-46.415 46.415c0 10.304 3.379 19.831 9.081 27.541-18.705 12.227-31.099 33.341-31.099 57.307v11.667c.001 8.284 6.717 15 15.001 15zm37.018-111.514c0-9.052 7.363-16.415 16.415-16.415s16.415 7.363 16.415 16.415-7.363 16.416-16.415 16.416-16.415-7.365-16.415-16.416zm16.415 46.416c20.069 0 36.595 15.462 38.289 35.099h-76.578c1.694-19.637 18.22-35.099 38.289-35.099z"/><path d="m301.879 163.599h135.121c8.284 0 15-6.716 15-15s-6.716-15-15-15h-135.121c-8.284 0-15 6.716-15 15s6.716 15 15 15z"/><path d="m301.879 103.599h135.121c8.284 0 15-6.716 15-15s-6.716-15-15-15h-135.121c-8.284 0-15 6.716-15 15s6.716 15 15 15z"/><path d="m301.879 223.599h135.121c8.284 0 15-6.716 15-15s-6.716-15-15-15h-135.121c-8.284 0-15 6.716-15 15s6.716 15 15 15z"/></g><path d="m114.505 376.283-104.957 104.957c-5.858 5.858-5.858 15.355 0 21.213 5.857 5.858 15.355 5.859 21.213 0l104.957-104.958 110.111 110.111c5.857 5.858 15.355 5.859 21.213 0 31.245-31.245 48.461-72.797 48.476-117.002 0-.001 0-.003 0-.005 0-21.913-4.417-43.791-12.817-63.906l68.435-68.435c35.636 19.659 80.51 13.325 109.381-15.531l27.093-27.104c5.855-5.858 5.854-15.354-.003-21.211l-190.019-190.018c-5.856-5.857-15.353-5.859-21.211-.002l-27.109 27.097c-28.861 28.875-35.192 73.768-15.525 109.375l-68.425 68.425c-61.636-25.853-133.107-12.147-180.924 35.67-5.858 5.858-5.858 15.355 0 21.213zm160.954-214.71c9.148-9.147 11.127-23.432 4.79-34.772-13.53-24.064-9.32-54.537 10.232-74.1l16.497-16.49 168.811 168.811-16.484 16.492c-19.567 19.558-50.041 23.768-74.139 10.22-11.304-6.32-25.59-4.342-34.737 4.806l-62.514 62.514c-5.751-8.645-12.845-17.434-20.873-25.461l-28.634-28.634c-7.928-7.928-16.695-15.039-25.462-20.873zm-58.263 104.598 28.634 28.635c49.098 49.093 52.914 126.977 10.029 180.404l-219.063-219.063c53.58-42.923 131.24-39.133 180.4 10.024z" transform="matrix(0.03866990252279592 -0.0082864076856206 0.0082864076856206 0.03866990252279592 331.9791845866454 304.2218253216831)" id="L1_23"/><g transform="matrix(-0.05014117709281064 0.01769688607030839 0.01769688607030839 0.05014117709281064 298.3057474128513 42.63342331427846)" id="L1_24"><path d="m443.761 33.707h-375.521c-37.628 0-68.24 30.612-68.24 68.239v308.107c0 37.627 30.612 68.239 68.24 68.239h375.521c37.627 0 68.239-30.612 68.239-68.239v-308.107c0-37.627-30.612-68.239-68.239-68.239zm38.239 376.347c0 21.085-17.154 38.239-38.239 38.239h-375.521c-21.085 0-38.24-17.154-38.24-38.239v-308.108c0-21.085 17.154-38.239 38.24-38.239h375.521c21.085 0 38.239 17.154 38.239 38.239z"/><path d="m271 262.992v-154.285c0-8.284-6.716-15-15-15s-15 6.716-15 15v154.285c-17.786 6.217-30.583 23.155-30.583 43.036s12.798 36.818 30.583 43.036v54.229c0 8.284 6.716 15 15 15s15-6.716 15-15v-54.229c17.786-6.217 30.583-23.155 30.583-43.036s-12.797-36.818-30.583-43.036zm-14.986 58.619c-.005 0-.01-.001-.014-.001s-.01.001-.014.001c-8.586-.008-15.569-6.995-15.569-15.583 0-8.593 6.991-15.583 15.583-15.583s15.583 6.991 15.583 15.583c0 8.588-6.982 15.575-15.569 15.583z"/><path d="m140.5 162.927v-54.22c0-8.284-6.716-15-15-15s-15 6.716-15 15v54.22c-17.786 6.217-30.583 23.155-30.583 43.035s12.798 36.818 30.583 43.036v154.295c0 8.284 6.716 15 15 15s15-6.716 15-15v-154.295c17.786-6.217 30.583-23.155 30.583-43.036s-12.797-36.818-30.583-43.035zm-15 58.618c-8.593 0-15.583-6.991-15.583-15.583 0-8.589 6.986-15.577 15.574-15.583h.01s.006 0 .01 0c8.588.005 15.574 6.993 15.574 15.583-.002 8.593-6.992 15.583-15.585 15.583z"/><path d="m401.5 162.927v-54.22c0-8.284-6.716-15-15-15s-15 6.716-15 15v54.22c-17.786 6.217-30.583 23.155-30.583 43.035s12.797 36.818 30.583 43.036v154.295c0 8.284 6.716 15 15 15s15-6.716 15-15v-154.295c17.786-6.217 30.583-23.155 30.583-43.036s-12.797-36.818-30.583-43.035zm-15 58.618c-8.593 0-15.583-6.991-15.583-15.583 0-8.589 6.985-15.577 15.573-15.583h.01s.006 0 .01 0c8.588.005 15.573 6.993 15.573 15.583 0 8.593-6.99 15.583-15.583 15.583z"/></g><g transform="matrix(0.04419421548765165 -0.024859246425920113 0.024859246425920113 0.04419421548765165 173.32230190314104 29.050286825931913)" id="L1_25"><path d="m74.686 507.607c5.854 5.855 15.358 5.858 21.214 0l85.174-85.188 29.155 49.283c6.481 10.958 22.863 9.334 27.068-2.683l94.331-269.563c4.148-11.853-7.284-23.251-19.114-19.112l-269.534 94.341c-12.007 4.203-13.645 20.582-2.683 27.067l49.272 29.151-85.176 85.192c-5.857 5.857-5.857 15.354 0 21.211zm49.768-169.164c6.918-6.918 5.46-18.528-2.969-23.515l-38.163-22.579 209.701-73.398-73.391 209.724-22.583-38.173c-4.981-8.42-16.592-9.895-23.518-2.968l-88.239 88.253-49.08-49.087z"/><path d="m329.161 89.289c8.284 0 15-6.716 15-15v-59.288c0-8.284-6.716-15-15-15s-15 6.716-15 15v59.288c0 8.284 6.716 15 15 15z"/><path d="m422.719 182.858c0 8.284 6.716 15 15 15h59.281c8.284 0 15-6.716 15-15s-6.716-15-15-15h-59.281c-8.284 0-15 6.716-15 15z"/><path d="m236.928 118.627c5.841 5.857 15.338 5.887 21.213.029 5.866-5.85 5.878-15.347.029-21.213l-41.863-41.978c-5.85-5.866-15.348-5.878-21.213-.029-5.866 5.85-5.878 15.347-.029 21.213z"/><path d="m414.569 115.958 41.973-41.868c5.865-5.851 5.877-15.348.026-21.213-5.851-5.866-15.349-5.877-21.213-.026l-41.973 41.868c-5.865 5.851-5.877 15.348-.026 21.213 5.858 5.872 15.356 5.87 21.213.026z"/><path d="m435.011 317.248c5.847 5.862 15.343 5.883 21.213.029 5.866-5.85 5.878-15.348.029-21.213l-41.864-41.977c-5.851-5.867-15.347-5.878-21.213-.029-5.866 5.85-5.878 15.348-.029 21.213z"/></g><g transform="matrix(-0.06574904918670654 0 0 0.06574904918670654 171.33175659179688 178.66824340820312)"><path d="m372.21 0h-232.42c-26.95 0-48.79 21.802-48.79 48.79v414.42c0 26.903 21.887 48.79 48.79 48.79h232.42c26.903 0 48.79-21.887 48.79-48.79 0-6.708 0-407.662 0-414.42 0-26.946-21.795-48.79-48.79-48.79zm-251.21 48.79c0-10.388 8.412-18.79 18.79-18.79h232.42c10.311 0 18.79 8.336 18.79 18.79v11.21h-270zm251.21 433.21h-232.42c-10.36 0-18.79-8.43-18.79-18.79v-373.21h270v373.21c0 10.36-8.43 18.79-18.79 18.79z"/><path d="m165.999 220h60c8.284 0 15-6.716 15-15v-60c0-8.284-6.716-15-15-15h-60c-8.284 0-15 6.716-15 15v60c0 8.284 6.716 15 15 15zm15-60h30v30h-30z"/><path d="m240.999 325v-60c0-8.284-6.716-15-15-15h-60c-8.284 0-15 6.716-15 15v60c0 8.284 6.716 15 15 15h60c8.284 0 15-6.716 15-15zm-30-15h-30v-30h30z"/><path d="m345.999 250h-60c-8.284 0-15 6.716-15 15v60c0 8.284 6.716 15 15 15h60c8.284 0 15-6.716 15-15v-60c0-8.284-6.716-15-15-15zm-15 60h-30v-30h30z"/><path d="m345.999 130h-60c-8.284 0-15 6.716-15 15v60c0 8.284 6.716 15 15 15h60c8.284 0 15-6.716 15-15v-60c0-8.284-6.716-15-15-15zm-15 60h-30v-30h30z"/><path d="m277.608 422h-43.217c-8.284 0-15 6.716-15 15s6.716 15 15 15h43.217c8.284 0 15-6.716 15-15s-6.715-15-15-15z"/></g><g transform="matrix(-0.05014117709281064 0.01769688607030839 0.01769688607030839 0.05014117709281064 66.30574753814668 121.63342366928187)"><path d="m443.761 33.707h-375.521c-37.628 0-68.24 30.612-68.24 68.239v308.107c0 37.627 30.612 68.239 68.24 68.239h375.521c37.627 0 68.239-30.612 68.239-68.239v-308.107c0-37.627-30.612-68.239-68.239-68.239zm38.239 376.347c0 21.085-17.154 38.239-38.239 38.239h-375.521c-21.085 0-38.24-17.154-38.24-38.239v-308.108c0-21.085 17.154-38.239 38.24-38.239h375.521c21.085 0 38.239 17.154 38.239 38.239z"/><path d="m271 262.992v-154.285c0-8.284-6.716-15-15-15s-15 6.716-15 15v154.285c-17.786 6.217-30.583 23.155-30.583 43.036s12.798 36.818 30.583 43.036v54.229c0 8.284 6.716 15 15 15s15-6.716 15-15v-54.229c17.786-6.217 30.583-23.155 30.583-43.036s-12.797-36.818-30.583-43.036zm-14.986 58.619c-.005 0-.01-.001-.014-.001s-.01.001-.014.001c-8.586-.008-15.569-6.995-15.569-15.583 0-8.593 6.991-15.583 15.583-15.583s15.583 6.991 15.583 15.583c0 8.588-6.982 15.575-15.569 15.583z"/><path d="m140.5 162.927v-54.22c0-8.284-6.716-15-15-15s-15 6.716-15 15v54.22c-17.786 6.217-30.583 23.155-30.583 43.035s12.798 36.818 30.583 43.036v154.295c0 8.284 6.716 15 15 15s15-6.716 15-15v-154.295c17.786-6.217 30.583-23.155 30.583-43.036s-12.797-36.818-30.583-43.035zm-15 58.618c-8.593 0-15.583-6.991-15.583-15.583 0-8.589 6.986-15.577 15.574-15.583h.01s.006 0 .01 0c8.588.005 15.574 6.993 15.574 15.583-.002 8.593-6.992 15.583-15.585 15.583z"/><path d="m401.5 162.927v-54.22c0-8.284-6.716-15-15-15s-15 6.716-15 15v54.22c-17.786 6.217-30.583 23.155-30.583 43.035s12.797 36.818 30.583 43.036v154.295c0 8.284 6.716 15 15 15s15-6.716 15-15v-154.295c17.786-6.217 30.583-23.155 30.583-43.036s-12.797-36.818-30.583-43.035zm-15 58.618c-8.593 0-15.583-6.991-15.583-15.583 0-8.589 6.985-15.577 15.573-15.583h.01s.006 0 .01 0c8.588.005 15.573 6.993 15.573 15.583 0 8.593-6.99 15.583-15.583 15.583z"/></g><path d="m114.505 376.283-104.957 104.957c-5.858 5.858-5.858 15.355 0 21.213 5.857 5.858 15.355 5.859 21.213 0l104.957-104.958 110.111 110.111c5.857 5.858 15.355 5.859 21.213 0 31.245-31.245 48.461-72.797 48.476-117.002 0-.001 0-.003 0-.005 0-21.913-4.417-43.791-12.817-63.906l68.435-68.435c35.636 19.659 80.51 13.325 109.381-15.531l27.093-27.104c5.855-5.858 5.854-15.354-.003-21.211l-190.019-190.018c-5.856-5.857-15.353-5.859-21.211-.002l-27.109 27.097c-28.861 28.875-35.192 73.768-15.525 109.375l-68.425 68.425c-61.636-25.853-133.107-12.147-180.924 35.67-5.858 5.858-5.858 15.355 0 21.213zm160.954-214.71c9.148-9.147 11.127-23.432 4.79-34.772-13.53-24.064-9.32-54.537 10.232-74.1l16.497-16.49 168.811 168.811-16.484 16.492c-19.567 19.558-50.041 23.768-74.139 10.22-11.304-6.32-25.59-4.342-34.737 4.806l-62.514 62.514c-5.751-8.645-12.845-17.434-20.873-25.461l-28.634-28.634c-7.928-7.928-16.695-15.039-25.462-20.873zm-58.263 104.598 28.634 28.635c49.098 49.093 52.914 126.977 10.029 180.404l-219.063-219.063c53.58-42.923 131.24-39.133 180.4 10.024z" transform="matrix(0.03866990252279592 -0.0082864076856206 0.0082864076856206 0.03866990252279592 181.97918458664537 73.22182532168311)"/><g transform="matrix(0.05800485470047607 -0.005524271779062194 0.005524271779062194 0.05800485470047607 -15.263456378761795 -1.4350292278819516)"><path d="m467.783 168.41 30.144-30.144c5.858-5.857 5.858-15.355 0-21.213l-102.98-102.98c-5.857-5.857-15.355-5.857-21.213 0l-30.144 30.144-39.823-39.824c-5.857-5.857-15.355-5.857-21.213 0l-278.16 278.161c-5.858 5.857-5.858 15.355 0 21.213l203.84 203.84c5.858 5.858 15.355 5.858 21.213 0l278.16-278.16c5.858-5.857 5.858-15.355 0-21.213zm-83.443-122.518 81.768 81.768-19.537 19.537-81.768-81.767zm-165.5 429.895-182.627-182.627 214.521-214.521 182.627 182.627zm235.733-235.733-182.626-182.627 21.214-21.214c22.523 22.523 162.861 162.861 182.627 182.627z"/><path d="m341.188 219.155c-1.258-8.188-8.924-13.798-17.104-12.548l-131.491 20.204c-12.01 1.838-17.072 16.687-8.328 25.433l54.556 54.557-102.226 15.707c-8.188 1.259-13.806 8.916-12.548 17.104 1.256 8.173 8.897 13.805 17.104 12.548l131.49-20.204c12.277-1.898 16.889-16.872 8.328-25.433l-54.556-54.557 102.227-15.706c8.187-1.259 13.806-8.916 12.548-17.105z"/></g><g transform="matrix(0.04419421548765165 -0.024859246425920113 0.024859246425920113 0.04419421548765165 309.32230190314107 198.05028682593192)"><path d="m74.686 507.607c5.854 5.855 15.358 5.858 21.214 0l85.174-85.188 29.155 49.283c6.481 10.958 22.863 9.334 27.068-2.683l94.331-269.563c4.148-11.853-7.284-23.251-19.114-19.112l-269.534 94.341c-12.007 4.203-13.645 20.582-2.683 27.067l49.272 29.151-85.176 85.192c-5.857 5.857-5.857 15.354 0 21.211zm49.768-169.164c6.918-6.918 5.46-18.528-2.969-23.515l-38.163-22.579 209.701-73.398-73.391 209.724-22.583-38.173c-4.981-8.42-16.592-9.895-23.518-2.968l-88.239 88.253-49.08-49.087z"/><path d="m329.161 89.289c8.284 0 15-6.716 15-15v-59.288c0-8.284-6.716-15-15-15s-15 6.716-15 15v59.288c0 8.284 6.716 15 15 15z"/><path d="m422.719 182.858c0 8.284 6.716 15 15 15h59.281c8.284 0 15-6.716 15-15s-6.716-15-15-15h-59.281c-8.284 0-15 6.716-15 15z"/><path d="m236.928 118.627c5.841 5.857 15.338 5.887 21.213.029 5.866-5.85 5.878-15.347.029-21.213l-41.863-41.978c-5.85-5.866-15.348-5.878-21.213-.029-5.866 5.85-5.878 15.347-.029 21.213z"/><path d="m414.569 115.958 41.973-41.868c5.865-5.851 5.877-15.348.026-21.213-5.851-5.866-15.349-5.877-21.213-.026l-41.973 41.868c-5.865 5.851-5.877 15.348-.026 21.213 5.858 5.872 15.356 5.87 21.213.026z"/><path d="m435.011 317.248c5.847 5.862 15.343 5.883 21.213.029 5.866-5.85 5.878-15.348.029-21.213l-41.864-41.977c-5.851-5.867-15.347-5.878-21.213-.029-5.866 5.85-5.878 15.348-.029 21.213z"/></g><g transform="matrix(0.0414320369561039 0.016572814179618235 -0.016572814179618235 0.0414320369561039 237.63603896921967 110.15075810925508)"><path d="m374.379 13.586c-28.379-10.689-58.38-15.107-89.166-13.125-7.894.507-14.037 7.058-14.037 14.969v210.396c0 8.284 6.716 15 15 15h210.396c7.911 0 14.461-6.143 14.969-14.037 1.979-30.789-2.437-60.789-13.126-89.168-21.44-56.927-67.037-102.568-124.036-124.035zm-73.204 197.239v-180.818c48.16.424 92.937 19.139 127.308 53.511 34.372 34.372 53.087 79.147 53.511 127.307z"/><path d="m409.922 271.184h-169.104v-169.106c0-7.911-6.143-14.462-14.038-14.969-61.78-3.989-120.848 18.197-164.491 61.84-40.168 40.158-62.289 93.562-62.289 150.378 0 56.812 22.121 110.22 62.288 150.386 40.166 40.166 93.574 62.287 150.387 62.287 91.163 0 168.919-57.483 199.092-137.603 10.687-28.379 15.103-58.381 13.124-89.176-.507-7.894-7.058-14.037-14.969-14.037zm-315.38 167.487 116.273-116.271v159.592c-42.143-.418-83.071-15.074-116.273-43.321zm-11.041-268.507c34.375-34.375 79.144-53.089 127.318-53.508v163.315l-137.49 137.488c-28.038-32.964-43.329-74.368-43.329-118.132 0-48.8 18.999-94.671 53.501-129.163zm157.317 309.684v-178.665h154.527c-.81 92.486-69.492 165.492-154.527 178.665z"/></g><path d="m114.505 376.283-104.957 104.957c-5.858 5.858-5.858 15.355 0 21.213 5.857 5.858 15.355 5.859 21.213 0l104.957-104.958 110.111 110.111c5.857 5.858 15.355 5.859 21.213 0 31.245-31.245 48.461-72.797 48.476-117.002 0-.001 0-.003 0-.005 0-21.913-4.417-43.791-12.817-63.906l68.435-68.435c35.636 19.659 80.51 13.325 109.381-15.531l27.093-27.104c5.855-5.858 5.854-15.354-.003-21.211l-190.019-190.018c-5.856-5.857-15.353-5.859-21.211-.002l-27.109 27.097c-28.861 28.875-35.192 73.768-15.525 109.375l-68.425 68.425c-61.636-25.853-133.107-12.147-180.924 35.67-5.858 5.858-5.858 15.355 0 21.213zm160.954-214.71c9.148-9.147 11.127-23.432 4.79-34.772-13.53-24.064-9.32-54.537 10.232-74.1l16.497-16.49 168.811 168.811-16.484 16.492c-19.567 19.558-50.041 23.768-74.139 10.22-11.304-6.32-25.59-4.342-34.737 4.806l-62.514 62.514c-5.751-8.645-12.845-17.434-20.873-25.461l-28.634-28.634c-7.928-7.928-16.695-15.039-25.462-20.873zm-58.263 104.598 28.634 28.635c49.098 49.093 52.914 126.977 10.029 180.404l-219.063-219.063c53.58-42.923 131.24-39.133 180.4 10.024z" transform="matrix(0.03866990252279592 -0.0082864076856206 0.0082864076856206 0.03866990252279592 307.9791845866454 44.22182532168312)"/><g transform="matrix(0.05173605832167975 -0.012173189820190795 0.012173189820190795 0.05173605832167975 243.63923247568113 245.87190566361883)"><path d="m454.62 122.61h-.087l-12.598-29.567c-11.142-26.147-36.707-43.043-65.13-43.043h-161.61c-28.423 0-53.988 16.896-65.13 43.044l-12.599 29.566h-80.086c-31.639 0-57.38 25.741-57.38 57.38v224.63c0 31.64 25.741 57.38 57.38 57.38h397.24c31.64 0 57.38-25.74 57.38-57.38v-224.63c0-31.639-25.74-57.38-57.38-57.38zm27.38 282.01c0 15.098-12.282 27.38-27.38 27.38h-397.24c-15.097 0-27.38-12.282-27.38-27.38v-224.63c0-15.098 12.283-27.38 27.38-27.38h90c6.012 0 11.443-3.589 13.799-9.12l16.485-38.687c6.421-15.067 21.152-24.803 37.531-24.803h161.609c16.379 0 31.11 9.736 37.531 24.804l16.484 38.687c2.356 5.531 7.788 9.12 13.8 9.12h10c15.098 0 27.38 12.282 27.38 27.38v224.629z"/><path d="m296 129.516c-75.124 0-136.242 61.118-136.242 136.242s61.118 136.242 136.242 136.242 136.242-61.118 136.242-136.242-61.118-136.242-136.242-136.242zm0 242.484c-58.582 0-106.242-47.66-106.242-106.242s47.66-106.242 106.242-106.242 106.242 47.66 106.242 106.242-47.66 106.242-106.242 106.242z"/><path d="m263.307 211.854c-5.857-5.857-15.355-5.857-21.213 0-14.402 14.402-22.334 33.546-22.334 53.906 0 20.361 7.932 39.506 22.334 53.907 5.857 5.857 15.356 5.857 21.213-.001s5.856-15.355-.001-21.214c-8.736-8.734-13.547-20.345-13.547-32.692s4.811-23.957 13.547-32.693c5.859-5.858 5.859-15.356.001-21.213z"/><path d="m94.879 182.61c-8.284 0-15 6.716-15 15v59.789c0 8.284 6.716 15 15 15s15-6.716 15-15v-59.789c0-8.284-6.716-15-15-15z"/><path d="m94.879 303.597c-8.284 0-15 6.716-15 15v59.79c0 8.284 6.716 15 15 15s15-6.716 15-15v-59.79c0-8.284-6.716-15-15-15z"/></g><path d="m497 179.91h-35.461c-18.803-17.818-44.18-28.763-72.067-28.763-32.816 0-62.155 15.158-81.396 38.836-30.358-24.046-73.744-24.087-104.154 0-19.241-23.678-48.579-38.836-81.396-38.836-27.887 0-53.264 10.946-72.067 28.763h-35.459c-8.284 0-15 6.716-15 15s6.716 15 15 15h13.364c-6.84 13.919-10.69 29.562-10.69 46.09 0 57.816 47.037 104.853 104.853 104.853s104.853-47.037 104.853-104.853c0-14.111-2.809-27.577-7.885-39.877 20.571-18.904 52.411-18.93 73.011 0-5.077 12.3-7.885 25.766-7.885 39.877 0 57.816 47.037 104.853 104.853 104.853s104.853-47.037 104.853-104.853c0-16.528-3.849-32.171-10.69-46.09h13.363c8.284 0 15-6.716 15-15s-6.716-15-15-15zm-374.473 150.943c-41.274 0-74.853-33.579-74.853-74.853s33.579-74.853 74.853-74.853 74.853 33.579 74.853 74.853-33.579 74.853-74.853 74.853zm266.946 0c-41.274 0-74.853-33.579-74.853-74.853s33.579-74.853 74.853-74.853 74.853 33.579 74.853 74.853-33.579 74.853-74.853 74.853z" transform="matrix(0.05783672416474295 -0.010844386128825437 0.010844386128825437 0.05783672416474295 94.4176357648465 22.969961462805117)" id="L1_26"/><g transform="matrix(0.05359366105283746 -0.01576284086068971 0.01576284086068971 0.05359366105283746 86.24473551013705 266.31531003081017)" id="L1_27"><path d="m164.593 162.777-86.833 86.833c-5.858 5.858-5.858 15.355 0 21.213l78.4 78.4c5.857 5.858 15.355 5.859 21.213 0 5.858-5.858 5.858-15.355 0-21.213l-67.793-67.794 76.226-76.227c5.858-5.858 5.858-15.355 0-21.213s-15.356-5.858-21.213.001z"/><path d="m355.84 162.777c-5.857-5.858-15.355-5.858-21.213 0s-5.858 15.355 0 21.213l67.793 67.794-76.226 76.227c-5.858 5.858-5.858 15.355 0 21.213 5.857 5.858 15.355 5.859 21.213 0l86.833-86.833c5.858-5.858 5.858-15.355 0-21.213z"/><path d="m300.389 129.558c-7.814-2.76-16.38 1.338-19.139 9.149l-79.318 224.597c-2.758 7.812 1.337 16.38 9.149 19.139 7.809 2.758 16.38-1.336 19.139-9.149l79.318-224.597c2.758-7.812-1.338-16.381-9.149-19.139z"/><path d="m439.536 68.701h-367.072c-39.957 0-72.464 32.507-72.464 72.464v229.67c0 39.957 32.507 72.464 72.464 72.464h367.072c39.957 0 72.464-32.507 72.464-72.464v-229.67c0-39.957-32.507-72.464-72.464-72.464zm42.464 302.134c0 23.415-19.049 42.464-42.464 42.464h-367.072c-23.415 0-42.464-19.049-42.464-42.464v-229.67c0-23.415 19.049-42.464 42.464-42.464h367.072c23.415 0 42.464 19.049 42.464 42.464z"/></g><g transform="matrix(0.05302113174543233 -0.02183223021063533 0.02183223021063533 0.05302113174543233 224.83747681960855 331.0156191319599)" id="L1_28"><path d="m290.491 328.591-51.138-37.843c-11.107-8.218-5.275-25.955 8.56-25.955h16.072c7.934 0 14.389 6.455 14.389 14.389 0 8.284 6.716 15 15 15s15-6.716 15-15c0-22.089-16.22-40.456-37.374-43.829v-16.558c0-8.284-6.716-15-15-15s-15 6.716-15 15v16.539c-21.204 3.33-37.476 21.723-37.476 43.847 0 14.01 6.723 27.348 17.983 35.681l51.137 37.842c6.957 5.149 7.913 15.534 1.682 21.846-5.272 5.341-9.76 4.278-26.198 4.378-.03 0-.06 0-.09 0-7.893 0-14.339-6.396-14.387-14.299-.051-8.253-6.757-14.908-14.998-14.908-.031 0-.063 0-.094 0-8.284.051-14.959 6.808-14.908 15.092.136 21.987 16.316 40.184 37.349 43.551v16.562c0 8.284 6.716 15 15 15s15-6.716 15-15v-16.63c21.201-3.296 37.626-21.727 37.475-44.14l-.001-.187c-.094-13.887-6.817-27.113-17.983-35.378z"/><path d="m260.461 0h-8.922c-43.296 0-78.521 35.224-78.521 78.52v53.204h-60.405c-7.725 0-14.187 5.867-14.931 13.556l-33.873 350.276c-.853 8.812 6.084 16.444 14.93 16.444h354.521c8.853 0 15.782-7.638 14.931-16.444l-33.875-350.276c-.744-7.689-7.206-13.556-14.931-13.556h-60.404v-53.204c0-43.296-35.224-78.52-78.52-78.52zm-57.442 78.52c0-26.754 21.767-48.52 48.521-48.52h8.922c26.754 0 48.521 21.766 48.521 48.52v53.204h-105.964zm213.721 403.48h-321.48l30.973-320.276h259.534z"/></g><g transform="matrix(0.03123307673481828 -0.03975118860710301 0.03975118860710301 0.03123307673481828 126.38961320099523 79.9663157153101)" id="L1_29"><path d="m305.261 228.677c34.557 0 62.67-28.188 62.67-62.838s-28.113-62.838-62.67-62.838c-34.556 0-62.669 28.188-62.669 62.838s28.113 62.838 62.669 62.838zm0-95.676c18.015 0 32.67 14.731 32.67 32.838s-14.655 32.838-32.67 32.838c-18.014 0-32.669-14.731-32.669-32.838s14.655-32.838 32.669-32.838z"/><path d="m497 43.001h-482c-8.284 0-15 6.716-15 15v395.998c0 .043.006.084.006.127 0 5.774 4.788 14.873 15 14.873 351.442-.167 448.77 0 481.993 0 8.284 0 15-6.716 15-15 0-11.141 0-386.102 0-395.998.001-8.284-6.715-15-14.999-15zm-15 30v239.44l-66.18-66.415c-5.86-5.881-15.39-5.88-21.25 0l-89.309 89.625-86.128-86.434c-5.86-5.881-15.39-5.88-21.25 0l-167.883 168.478v-344.694zm-430.86 365.98 157.368-157.925c.001.001 157.219 157.776 157.219 157.776zm430.86.018h-73.757l-81.807-82.097 78.759-79.037 76.805 77.077z"/></g><path d="m389.11 0h-266.22c-8.284 0-15 6.716-15 15v59.989c0 8.284 6.716 15 15 15h15.82c0 70.014-.238 68.158.735 76.88.015.164.036.325.056.488 4.415 38.095 27.158 70.68 59.163 88.688-35.749 20.115-59.954 58.417-59.954 102.271v63.694h-15.82c-8.284 0-15 6.716-15 15v59.99c0 8.284 6.716 15 15 15h266.22c8.284 0 15-6.716 15-15v-59.989c0-8.284-6.716-15-15-15h-15.82v-63.694c0-31.325-12.2-60.774-34.354-82.925-7.7-7.698-16.284-14.191-25.52-19.391 32.02-18.049 54.754-50.697 59.107-88.85.006-.053.013-.106.018-.16.999-8.862.749-7.382.749-77.001h15.82c8.284 0 15-6.716 15-15v-59.99c0-8.284-6.715-15-15-15zm-15 482h-236.22v-29.989h236.221v29.989zm-176.499-59.989 41.988-32.485c10.028-6.197 22.775-6.196 32.802 0l41.988 32.485zm145.679-63.695v48.124l-53.094-41.077c-.341-.263-.692-.512-1.054-.745-20.135-12.972-46.152-12.972-66.285 0-.362.233-.714.482-1.055.745l-53.092 41.077v-48.124c0-43.009 31.281-78.847 72.29-85.978v33.121c0 8.284 6.716 15 15 15s15-6.716 15-15v-33.113c17.608 3.033 33.831 11.369 46.725 24.259 16.486 16.485 25.565 38.401 25.565 61.711zm-87.29-117.271c-38.805 0-71.771-25.449-83.092-60.528h166.185c-11.322 35.079-44.288 60.528-83.093 60.528zm87.29-90.528h-174.58v-60.528h174.58zm30.82-90.528c-6.347 0-228.601 0-236.221 0v-29.989h236.221z" transform="matrix(0.04133608465758658 0.009539096244070764 -0.009539096244070764 0.04133608465758658 23.80868882037088 260.3235958422867)" id="L1_30"/></defs><g fi:class="KUsePattern" opacity="0.11"><pattern id="pattern_L1_13" width="350" height="350" patternUnits="userSpaceOnUse"><use xlink:href="#L1_13" x="-350" y="-350"/><use xlink:href="#L1_13" x="0" y="-350"/><use xlink:href="#L1_13" x="350" y="-350"/><use xlink:href="#L1_13" x="-350" y="0"/><use xlink:href="#L1_13" x="0" y="0"/><use xlink:href="#L1_13" x="350" y="0"/><use xlink:href="#L1_13" x="-350" y="350"/><use xlink:href="#L1_13" x="0" y="350"/><use xlink:href="#L1_13" x="350" y="350"/></pattern><rect x="0" y="0" width="100%" height="100%" fill="url(#pattern_L1_13)"/></g><g fi:class="KUsePattern" opacity="0.11"><pattern id="pattern_L1_15" width="350" height="350" patternUnits="userSpaceOnUse"><use xlink:href="#L1_15" x="-350" y="-350"/><use xlink:href="#L1_15" x="0" y="-350"/><use xlink:href="#L1_15" x="350" y="-350"/><use xlink:href="#L1_15" x="-350" y="0"/><use xlink:href="#L1_15" x="0" y="0"/><use xlink:href="#L1_15" x="350" y="0"/><use xlink:href="#L1_15" x="-350" y="350"/><use xlink:href="#L1_15" x="0" y="350"/><use xlink:href="#L1_15" x="350" y="350"/></pattern><rect x="0" y="0" width="100%" height="100%" fill="url(#pattern_L1_15)"/></g><g fi:class="KUsePattern" opacity="0.11"><pattern id="pattern_L1_20" width="350" height="350" patternUnits="userSpaceOnUse"><use xlink:href="#L1_20" x="-350" y="-350"/><use xlink:href="#L1_20" x="0" y="-350"/><use xlink:href="#L1_20" x="350" y="-350"/><use xlink:href="#L1_20" x="-350" y="0"/><use xlink:href="#L1_20" x="0" y="0"/><use xlink:href="#L1_20" x="350" y="0"/><use xlink:href="#L1_20" x="-350" y="350"/><use xlink:href="#L1_20" x="0" y="350"/><use xlink:href="#L1_20" x="350" y="350"/></pattern><rect x="0" y="0" width="100%" height="100%" fill="url(#pattern_L1_20)"/></g><g fi:class="KUsePattern" opacity="0.11"><pattern id="pattern_L1_18" width="350" height="350" patternUnits="userSpaceOnUse"><use xlink:href="#L1_18" x="-350" y="-350"/><use xlink:href="#L1_18" x="0" y="-350"/><use xlink:href="#L1_18" x="350" y="-350"/><use xlink:href="#L1_18" x="-350" y="0"/><use xlink:href="#L1_18" x="0" y="0"/><use xlink:href="#L1_18" x="350" y="0"/><use xlink:href="#L1_18" x="-350" y="350"/><use xlink:href="#L1_18" x="0" y="350"/><use xlink:href="#L1_18" x="350" y="350"/></pattern><rect x="0" y="0" width="100%" height="100%" fill="url(#pattern_L1_18)"/></g><g fi:class="KUsePattern" opacity="0.11"><pattern id="pattern_L1_19" width="350" height="350" patternUnits="userSpaceOnUse"><use xlink:href="#L1_19" x="-350" y="-350"/><use xlink:href="#L1_19" x="0" y="-350"/><use xlink:href="#L1_19" x="350" y="-350"/><use xlink:href="#L1_19" x="-350" y="0"/><use xlink:href="#L1_19" x="0" y="0"/><use xlink:href="#L1_19" x="350" y="0"/><use xlink:href="#L1_19" x="-350" y="350"/><use xlink:href="#L1_19" x="0" y="350"/><use xlink:href="#L1_19" x="350" y="350"/></pattern><rect x="0" y="0" width="100%" height="100%" fill="url(#pattern_L1_19)"/></g><g fi:class="KUsePattern" opacity="0.11"><pattern id="pattern_L1_21" width="350" height="350" patternUnits="userSpaceOnUse"><use xlink:href="#L1_21" x="-350" y="-350"/><use xlink:href="#L1_21" x="0" y="-350"/><use xlink:href="#L1_21" x="350" y="-350"/><use xlink:href="#L1_21" x="-350" y="0"/><use xlink:href="#L1_21" x="0" y="0"/><use xlink:href="#L1_21" x="350" y="0"/><use xlink:href="#L1_21" x="-350" y="350"/><use xlink:href="#L1_21" x="0" y="350"/><use xlink:href="#L1_21" x="350" y="350"/></pattern><rect x="0" y="0" width="100%" height="100%" fill="url(#pattern_L1_21)"/></g><g fi:class="KUsePattern" opacity="0.11"><pattern id="pattern_L1_22" width="350" height="350" patternUnits="userSpaceOnUse"><use xlink:href="#L1_22" x="-350" y="-350"/><use xlink:href="#L1_22" x="0" y="-350"/><use xlink:href="#L1_22" x="350" y="-350"/><use xlink:href="#L1_22" x="-350" y="0"/><use xlink:href="#L1_22" x="0" y="0"/><use xlink:href="#L1_22" x="350" y="0"/><use xlink:href="#L1_22" x="-350" y="350"/><use xlink:href="#L1_22" x="0" y="350"/><use xlink:href="#L1_22" x="350" y="350"/></pattern><rect x="0" y="0" width="100%" height="100%" fill="url(#pattern_L1_22)"/></g><g fi:class="KUsePattern" opacity="0.11"><pattern id="pattern_L1_23" width="350" height="350" patternUnits="userSpaceOnUse"><use xlink:href="#L1_23" x="-350" y="-350"/><use xlink:href="#L1_23" x="0" y="-350"/><use xlink:href="#L1_23" x="350" y="-350"/><use xlink:href="#L1_23" x="-350" y="0"/><use xlink:href="#L1_23" x="0" y="0"/><use xlink:href="#L1_23" x="350" y="0"/><use xlink:href="#L1_23" x="-350" y="350"/><use xlink:href="#L1_23" x="0" y="350"/><use xlink:href="#L1_23" x="350" y="350"/></pattern><rect x="0" y="0" width="100%" height="100%" fill="url(#pattern_L1_23)"/></g><g fi:class="KUsePattern" opacity="0.09"><pattern id="pattern_L1_24" width="350" height="350" patternUnits="userSpaceOnUse"><use xlink:href="#L1_24" x="-350" y="-350"/><use xlink:href="#L1_24" x="0" y="-350"/><use xlink:href="#L1_24" x="350" y="-350"/><use xlink:href="#L1_24" x="-350" y="0"/><use xlink:href="#L1_24" x="0" y="0"/><use xlink:href="#L1_24" x="350" y="0"/><use xlink:href="#L1_24" x="-350" y="350"/><use xlink:href="#L1_24" x="0" y="350"/><use xlink:href="#L1_24" x="350" y="350"/></pattern><rect x="0" y="0" width="100%" height="100%" fill="url(#pattern_L1_24)"/></g><g fi:class="KUsePattern" opacity="0.11"><pattern id="pattern_L1_25" width="350" height="350" patternUnits="userSpaceOnUse"><use xlink:href="#L1_25" x="-350" y="-350"/><use xlink:href="#L1_25" x="0" y="-350"/><use xlink:href="#L1_25" x="350" y="-350"/><use xlink:href="#L1_25" x="-350" y="0"/><use xlink:href="#L1_25" x="0" y="0"/><use xlink:href="#L1_25" x="350" y="0"/><use xlink:href="#L1_25" x="-350" y="350"/><use xlink:href="#L1_25" x="0" y="350"/><use xlink:href="#L1_25" x="350" y="350"/></pattern><rect x="0" y="0" width="100%" height="100%" fill="url(#pattern_L1_25)"/></g><g fi:class="KUsePattern" transform="matrix(1 0 0 1 20 20)" opacity="0.1"><pattern id="pattern_UNKNOWN" width="350" height="350" patternUnits="userSpaceOnUse"><use xlink:href="#UNKNOWN" x="-350" y="-350"/><use xlink:href="#UNKNOWN" x="0" y="-350"/><use xlink:href="#UNKNOWN" x="350" y="-350"/><use xlink:href="#UNKNOWN" x="-350" y="0"/><use xlink:href="#UNKNOWN" x="0" y="0"/><use xlink:href="#UNKNOWN" x="350" y="0"/><use xlink:href="#UNKNOWN" x="-350" y="350"/><use xlink:href="#UNKNOWN" x="0" y="350"/><use xlink:href="#UNKNOWN" x="350" y="350"/></pattern><rect x="0" y="0" width="100%" height="100%" fill="url(#pattern_UNKNOWN)"/></g><g fi:class="KUsePattern" transform="matrix(1 0 0 1 20 20)" opacity="0.11"><pattern id="pattern_UNKNOWN" width="350" height="350" patternUnits="userSpaceOnUse"><use xlink:href="#UNKNOWN" x="-350" y="-350"/><use xlink:href="#UNKNOWN" x="0" y="-350"/><use xlink:href="#UNKNOWN" x="350" y="-350"/><use xlink:href="#UNKNOWN" x="-350" y="0"/><use xlink:href="#UNKNOWN" x="0" y="0"/><use xlink:href="#UNKNOWN" x="350" y="0"/><use xlink:href="#UNKNOWN" x="-350" y="350"/><use xlink:href="#UNKNOWN" x="0" y="350"/><use xlink:href="#UNKNOWN" x="350" y="350"/></pattern><rect x="0" y="0" width="100%" height="100%" fill="url(#pattern_UNKNOWN)"/></g><g fi:class="KUsePattern" transform="matrix(1 0 0 1 20 20)" opacity="0.11"><pattern id="pattern_UNKNOWN" width="350" height="350" patternUnits="userSpaceOnUse"><use xlink:href="#UNKNOWN" x="-350" y="-350"/><use xlink:href="#UNKNOWN" x="0" y="-350"/><use xlink:href="#UNKNOWN" x="350" y="-350"/><use xlink:href="#UNKNOWN" x="-350" y="0"/><use xlink:href="#UNKNOWN" x="0" y="0"/><use xlink:href="#UNKNOWN" x="350" y="0"/><use xlink:href="#UNKNOWN" x="-350" y="350"/><use xlink:href="#UNKNOWN" x="0" y="350"/><use xlink:href="#UNKNOWN" x="350" y="350"/></pattern><rect x="0" y="0" width="100%" height="100%" fill="url(#pattern_UNKNOWN)"/></g><g fi:class="KUsePattern" transform="matrix(1 0 0 1 20 20)" opacity="0.11"><pattern id="pattern_UNKNOWN" width="350" height="350" patternUnits="userSpaceOnUse"><use xlink:href="#UNKNOWN" x="-350" y="-350"/><use xlink:href="#UNKNOWN" x="0" y="-350"/><use xlink:href="#UNKNOWN" x="350" y="-350"/><use xlink:href="#UNKNOWN" x="-350" y="0"/><use xlink:href="#UNKNOWN" x="0" y="0"/><use xlink:href="#UNKNOWN" x="350" y="0"/><use xlink:href="#UNKNOWN" x="-350" y="350"/><use xlink:href="#UNKNOWN" x="0" y="350"/><use xlink:href="#UNKNOWN" x="350" y="350"/></pattern><rect x="0" y="0" width="100%" height="100%" fill="url(#pattern_UNKNOWN)"/></g><g fi:class="KUsePattern" transform="matrix(1 0 0 1 20 20)" opacity="0.11"><pattern id="pattern_UNKNOWN" width="350" height="350" patternUnits="userSpaceOnUse"><use xlink:href="#UNKNOWN" x="-350" y="-350"/><use xlink:href="#UNKNOWN" x="0" y="-350"/><use xlink:href="#UNKNOWN" x="350" y="-350"/><use xlink:href="#UNKNOWN" x="-350" y="0"/><use xlink:href="#UNKNOWN" x="0" y="0"/><use xlink:href="#UNKNOWN" x="350" y="0"/><use xlink:href="#UNKNOWN" x="-350" y="350"/><use xlink:href="#UNKNOWN" x="0" y="350"/><use xlink:href="#UNKNOWN" x="350" y="350"/></pattern><rect x="0" y="0" width="100%" height="100%" fill="url(#pattern_UNKNOWN)"/></g><g fi:class="KUsePattern" transform="matrix(1 0 0 1 20 20)" opacity="0.11"><pattern id="pattern_UNKNOWN" width="350" height="350" patternUnits="userSpaceOnUse"><use xlink:href="#UNKNOWN" x="-350" y="-350"/><use xlink:href="#UNKNOWN" x="0" y="-350"/><use xlink:href="#UNKNOWN" x="350" y="-350"/><use xlink:href="#UNKNOWN" x="-350" y="0"/><use xlink:href="#UNKNOWN" x="0" y="0"/><use xlink:href="#UNKNOWN" x="350" y="0"/><use xlink:href="#UNKNOWN" x="-350" y="350"/><use xlink:href="#UNKNOWN" x="0" y="350"/><use xlink:href="#UNKNOWN" x="350" y="350"/></pattern><rect x="0" y="0" width="100%" height="100%" fill="url(#pattern_UNKNOWN)"/></g><g fi:class="KUsePattern" transform="matrix(1 0 0 1 40 40)" opacity="0.11"><pattern id="pattern_UNKNOWN" width="350" height="350" patternUnits="userSpaceOnUse"><use xlink:href="#UNKNOWN" x="-350" y="-350"/><use xlink:href="#UNKNOWN" x="0" y="-350"/><use xlink:href="#UNKNOWN" x="350" y="-350"/><use xlink:href="#UNKNOWN" x="-350" y="0"/><use xlink:href="#UNKNOWN" x="0" y="0"/><use xlink:href="#UNKNOWN" x="350" y="0"/><use xlink:href="#UNKNOWN" x="-350" y="350"/><use xlink:href="#UNKNOWN" x="0" y="350"/><use xlink:href="#UNKNOWN" x="350" y="350"/></pattern><rect x="0" y="0" width="100%" height="100%" fill="url(#pattern_UNKNOWN)"/></g><g fi:class="KUsePattern" transform="matrix(1 0 0 1 20 20)" opacity="0.11"><pattern id="pattern_UNKNOWN" width="350" height="350" patternUnits="userSpaceOnUse"><use xlink:href="#UNKNOWN" x="-350" y="-350"/><use xlink:href="#UNKNOWN" x="0" y="-350"/><use xlink:href="#UNKNOWN" x="350" y="-350"/><use xlink:href="#UNKNOWN" x="-350" y="0"/><use xlink:href="#UNKNOWN" x="0" y="0"/><use xlink:href="#UNKNOWN" x="350" y="0"/><use xlink:href="#UNKNOWN" x="-350" y="350"/><use xlink:href="#UNKNOWN" x="0" y="350"/><use xlink:href="#UNKNOWN" x="350" y="350"/></pattern><rect x="0" y="0" width="100%" height="100%" fill="url(#pattern_UNKNOWN)"/></g><g fi:class="KUsePattern" opacity="0.11"><pattern id="pattern_L1_26" width="350" height="350" patternUnits="userSpaceOnUse"><use xlink:href="#L1_26" x="-350" y="-350"/><use xlink:href="#L1_26" x="0" y="-350"/><use xlink:href="#L1_26" x="350" y="-350"/><use xlink:href="#L1_26" x="-350" y="0"/><use xlink:href="#L1_26" x="0" y="0"/><use xlink:href="#L1_26" x="350" y="0"/><use xlink:href="#L1_26" x="-350" y="350"/><use xlink:href="#L1_26" x="0" y="350"/><use xlink:href="#L1_26" x="350" y="350"/></pattern><rect x="0" y="0" width="100%" height="100%" fill="url(#pattern_L1_26)"/></g><g fi:class="KUsePattern" opacity="0.11"><pattern id="pattern_L1_27" width="350" height="350" patternUnits="userSpaceOnUse"><use xlink:href="#L1_27" x="-350" y="-350"/><use xlink:href="#L1_27" x="0" y="-350"/><use xlink:href="#L1_27" x="350" y="-350"/><use xlink:href="#L1_27" x="-350" y="0"/><use xlink:href="#L1_27" x="0" y="0"/><use xlink:href="#L1_27" x="350" y="0"/><use xlink:href="#L1_27" x="-350" y="350"/><use xlink:href="#L1_27" x="0" y="350"/><use xlink:href="#L1_27" x="350" y="350"/></pattern><rect x="0" y="0" width="100%" height="100%" fill="url(#pattern_L1_27)"/></g><g fi:class="KUsePattern" opacity="0.11"><pattern id="pattern_L1_28" width="350" height="350" patternUnits="userSpaceOnUse"><use xlink:href="#L1_28" x="-350" y="-350"/><use xlink:href="#L1_28" x="0" y="-350"/><use xlink:href="#L1_28" x="350" y="-350"/><use xlink:href="#L1_28" x="-350" y="0"/><use xlink:href="#L1_28" x="0" y="0"/><use xlink:href="#L1_28" x="350" y="0"/><use xlink:href="#L1_28" x="-350" y="350"/><use xlink:href="#L1_28" x="0" y="350"/><use xlink:href="#L1_28" x="350" y="350"/></pattern><rect x="0" y="0" width="100%" height="100%" fill="url(#pattern_L1_28)"/></g><g fi:class="KUsePattern" opacity="0.11"><pattern id="pattern_L1_29" width="350" height="350" patternUnits="userSpaceOnUse"><use xlink:href="#L1_29" x="-350" y="-350"/><use xlink:href="#L1_29" x="0" y="-350"/><use xlink:href="#L1_29" x="350" y="-350"/><use xlink:href="#L1_29" x="-350" y="0"/><use xlink:href="#L1_29" x="0" y="0"/><use xlink:href="#L1_29" x="350" y="0"/><use xlink:href="#L1_29" x="-350" y="350"/><use xlink:href="#L1_29" x="0" y="350"/><use xlink:href="#L1_29" x="350" y="350"/></pattern><rect x="0" y="0" width="100%" height="100%" fill="url(#pattern_L1_29)"/></g><g fi:class="KUsePattern" opacity="0.11"><pattern id="pattern_L1_30" width="350" height="350" patternUnits="userSpaceOnUse"><use xlink:href="#L1_30" x="-350" y="-350"/><use xlink:href="#L1_30" x="0" y="-350"/><use xlink:href="#L1_30" x="350" y="-350"/><use xlink:href="#L1_30" x="-350" y="0"/><use xlink:href="#L1_30" x="0" y="0"/><use xlink:href="#L1_30" x="350" y="0"/><use xlink:href="#L1_30" x="-350" y="350"/><use xlink:href="#L1_30" x="0" y="350"/><use xlink:href="#L1_30" x="350" y="350"/></pattern><rect x="0" y="0" width="100%" height="100%" fill="url(#pattern_L1_30)"/></g></svg>