<svg width="24" height="10" xmlns="http://www.w3.org/2000/svg">
 <title/>

 <g>
  <title>background</title>
  <rect fill="none" id="canvas_background" height="12" width="26" y="-1" x="-1"/>
 </g>
 <g>
  <title>Layer 1</title>
  <path stroke="null" id="svg_1" fill="#464646" d="m5.594092,3.059406a1.534686,1.564389 0 1 0 1.534686,1.564389a1.534686,1.564389 0 0 0 -1.534686,-1.564389zm0.722837,1.206144l-0.767343,0.782194a0.153469,0.156439 0 0 1 -0.217925,0l-0.306937,-0.312878a0.153469,0.156439 0 0 1 0.217925,-0.222143l0.197975,0.203371l0.65838,-0.672687a0.153469,0.156439 0 0 1 0.217925,0.222143z"/>
  <path stroke="null" id="svg_2" fill="#6400e4" d="m3.069351,3.049509a1.53469,1.56439 0 1 0 1.53468,1.56439a1.53469,1.56439 0 0 0 -1.53468,-1.56439zm0.72283,1.20614l-0.76734,0.7822a0.15347,0.15644 0 0 1 -0.21793,0l-0.30693,-0.31288a0.15347,0.15644 0 0 1 0.21792,-0.22214l0.19798,0.20337l0.65838,-0.67269a0.15347,0.15644 0 0 1 0.21792,0.22214z"/>
  <path stroke="null" id="svg_3" fill="#ffd500" d="m8.059444,3.059406a1.53469,1.56439 0 1 0 1.53469,1.56439a1.53469,1.56439 0 0 0 -1.53469,-1.56439zm0.72284,1.20614l-0.76734,0.7822a0.15347,0.15644 0 0 1 -0.21793,0l-0.30694,-0.31288a0.15347,0.15644 0 0 1 0.21793,-0.22214l0.19797,0.20337l0.65838,-0.67269a0.15347,0.15644 0 0 1 0.21793,0.22214z"/>
  <text font-weight="bold" xml:space="preserve" text-anchor="start" font-family="Junction, sans-serif" font-size="6" id="svg_4" y="6.936901" x="10.366344" stroke-opacity="null" stroke-width="0" stroke="null" fill="#464646">flick</text>
 </g>
</svg>